<?xml version="1.0" encoding="utf-8"?>
<COLLADA xmlns="http://www.collada.org/2005/11/COLLADASchema" version="1.4.1" xmlns:xsi="http://www.w3.org/2001/XMLSchema-instance">
  <asset>
    <contributor>
      <author>Blender User</author>
      <authoring_tool>Blender 3.6.16 commit date:2024-09-23, commit time:12:24, hash:54d0e53a369b</authoring_tool>
    </contributor>
    <created>2024-09-30T09:53:56</created>
    <modified>2024-09-30T09:53:56</modified>
    <unit name="meter" meter="1"/>
    <up_axis>Z_UP</up_axis>
  </asset>
  <library_effects>
    <effect id="Material_005-effect">
      <profile_COMMON>
        <technique sid="common">
          <lambert>
            <emission>
              <color sid="emission">0 0 0 1</color>
            </emission>
            <diffuse>
              <color sid="diffuse">0 0 0 1</color>
            </diffuse>
            <index_of_refraction>
              <float sid="ior">1.45</float>
            </index_of_refraction>
          </lambert>
        </technique>
      </profile_COMMON>
    </effect>
    <effect id="Material_002-effect">
      <profile_COMMON>
        <technique sid="common">
          <lambert>
            <emission>
              <color sid="emission">0 0 0 1</color>
            </emission>
            <diffuse>
              <color sid="diffuse">0 0 0 1</color>
            </diffuse>
            <index_of_refraction>
              <float sid="ior">1.45</float>
            </index_of_refraction>
          </lambert>
        </technique>
      </profile_COMMON>
    </effect>
    <effect id="Material_001-effect">
      <profile_COMMON>
        <technique sid="common">
          <lambert>
            <emission>
              <color sid="emission">0 0 0 1</color>
            </emission>
            <diffuse>
              <color sid="diffuse">0 0 0 1</color>
            </diffuse>
            <index_of_refraction>
              <float sid="ior">1.45</float>
            </index_of_refraction>
          </lambert>
        </technique>
      </profile_COMMON>
    </effect>
    <effect id="Material_003-effect">
      <profile_COMMON>
        <technique sid="common">
          <lambert>
            <emission>
              <color sid="emission">0 0 0 1</color>
            </emission>
            <diffuse>
              <color sid="diffuse">0 0 0 1</color>
            </diffuse>
            <index_of_refraction>
              <float sid="ior">1.45</float>
            </index_of_refraction>
          </lambert>
        </technique>
      </profile_COMMON>
    </effect>
    <effect id="Material_004-effect">
      <profile_COMMON>
        <technique sid="common">
          <lambert>
            <emission>
              <color sid="emission">0 0 0 1</color>
            </emission>
            <diffuse>
              <color sid="diffuse">0.7 0.7 0.7 1</color>
            </diffuse>
            <index_of_refraction>
              <float sid="ior">1.45</float>
            </index_of_refraction>
          </lambert>
        </technique>
      </profile_COMMON>
    </effect>
  </library_effects>
  <library_images/>
  <library_materials>
    <material id="Material_005-material" name="Material.005">
      <instance_effect url="#Material_005-effect"/>
    </material>
    <material id="Material_002-material" name="Material.002">
      <instance_effect url="#Material_002-effect"/>
    </material>
    <material id="Material_001-material" name="Material.001">
      <instance_effect url="#Material_001-effect"/>
    </material>
    <material id="Material_003-material" name="Material.003">
      <instance_effect url="#Material_003-effect"/>
    </material>
    <material id="Material_004-material" name="Material.004">
      <instance_effect url="#Material_004-effect"/>
    </material>
  </library_materials>
  <library_geometries>
    <geometry id="Cylinder_003-mesh" name="Cylinder.003">
      <mesh>
        <source id="Cylinder_003-mesh-positions">
          <float_array id="Cylinder_003-mesh-positions-array" count="192">0 0.00999999 -0.15 0 0.00999999 0.15 0.00195086 0.009807825 -0.15 0.00195086 0.009807825 0.15 0.003826797 0.009238779 -0.15 0.003826797 0.009238779 0.15 0.005555689 0.008314669 -0.15 0.005555689 0.008314669 0.15 0.007071018 0.007071018 -0.15 0.007071018 0.007071018 0.15 0.008314669 0.005555689 -0.15 0.008314669 0.005555689 0.15 0.009238779 0.003826797 -0.15 0.009238779 0.003826797 0.15 0.009807825 0.00195086 -0.15 0.009807825 0.00195086 0.15 0.00999999 0 -0.15 0.00999999 0 0.15 0.009807825 -0.00195086 -0.15 0.009807825 -0.00195086 0.15 0.009238779 -0.003826797 -0.15 0.009238779 -0.003826797 0.15 0.008314669 -0.005555689 -0.15 0.008314669 -0.005555689 0.15 0.007071018 -0.007071018 -0.15 0.007071018 -0.007071018 0.15 0.005555689 -0.008314669 -0.15 0.005555689 -0.008314669 0.15 0.003826797 -0.009238779 -0.15 0.003826797 -0.009238779 0.15 0.00195086 -0.009807825 -0.15 0.00195086 -0.009807825 0.15 0 -0.00999999 -0.15 0 -0.00999999 0.15 -0.00195086 -0.009807825 -0.15 -0.00195086 -0.009807825 0.15 -0.003826797 -0.009238779 -0.15 -0.003826797 -0.009238779 0.15 -0.005555689 -0.008314669 -0.15 -0.005555689 -0.008314669 0.15 -0.007071018 -0.007071018 -0.15 -0.007071018 -0.007071018 0.15 -0.008314669 -0.005555689 -0.15 -0.008314669 -0.005555689 0.15 -0.009238779 -0.003826797 -0.15 -0.009238779 -0.003826797 0.15 -0.009807825 -0.00195086 -0.15 -0.009807825 -0.00195086 0.15 -0.00999999 0 -0.15 -0.00999999 0 0.15 -0.009807825 0.00195086 -0.15 -0.009807825 0.00195086 0.15 -0.009238779 0.003826797 -0.15 -0.009238779 0.003826797 0.15 -0.008314669 0.005555689 -0.15 -0.008314669 0.005555689 0.15 -0.007071018 0.007071018 -0.15 -0.007071018 0.007071018 0.15 -0.005555689 0.008314669 -0.15 -0.005555689 0.008314669 0.15 -0.003826797 0.009238779 -0.15 -0.003826797 0.009238779 0.15 -0.00195086 0.009807825 -0.15 -0.00195086 0.009807825 0.15</float_array>
          <technique_common>
            <accessor source="#Cylinder_003-mesh-positions-array" count="64" stride="3">
              <param name="X" type="float"/>
              <param name="Y" type="float"/>
              <param name="Z" type="float"/>
            </accessor>
          </technique_common>
        </source>
        <source id="Cylinder_003-mesh-normals">
          <float_array id="Cylinder_003-mesh-normals-array" count="225">0.098028 0.9951838 0 0.2902787 0.9569422 0 0.4713958 0.8819218 0 0.6344094 0.7729974 0 0.7729969 0.6344099 0 0.8819215 0.4713963 0 0.956942 0.2902792 0 0.9951837 0.098028 0 0.9951837 -0.098028 0 0.9569423 -0.2902784 0 0.8819222 -0.4713951 0 0.7729973 -0.6344094 0 0.6344097 -0.772997 0 0.4713958 -0.8819218 0 0.2902787 -0.9569422 0 0.098028 -0.9951838 0 -0.098028 -0.9951838 0 -0.2902787 -0.9569422 0 -0.4713958 -0.8819218 0 -0.6344094 -0.7729974 0 -0.7729969 -0.6344099 0 -0.8819215 -0.4713963 0 -0.956942 -0.2902792 0 -0.9951837 -0.098028 0 -0.9951837 0.098028 0 -0.9569423 0.2902784 0 -0.8819222 0.4713951 0 -0.7729973 0.6344094 0 -0.6344097 0.772997 0 -0.4713958 0.8819218 0 0 0 1 -0.2902787 0.9569422 0 -0.098028 0.9951838 0 -1.16416e-6 0 -1 0.2902787 0.9569422 0 0.6344097 0.772997 0 0.7729973 0.6344094 0 0.8819222 0.4713951 0 0.9569423 0.2902784 0 0.956942 -0.2902792 0 0.8819215 -0.4713963 0 0.7729969 -0.6344099 0 0.6344094 -0.7729974 0 0.2902787 -0.9569422 0 -0.2902787 -0.9569422 0 -0.6344097 -0.772997 0 -0.7729973 -0.6344094 0 -0.8819222 -0.4713951 0 -0.9569423 -0.2902784 0 -0.956942 0.2902792 0 -0.8819215 0.4713963 0 -0.7729969 0.6344099 0 -0.6344094 0.7729974 0 4.85291e-6 0 1 -3.88148e-5 0 1 -7.763e-5 0 1 -7.76473e-5 0 1 3.88148e-5 0 1 7.763e-5 0 1 7.76473e-5 0 1 1.40334e-5 0 1 -1.40334e-5 0 1 -0.2902787 0.9569422 0 0 0 -1 -5.24269e-5 0 -1 7.7636e-5 0 -1 7.7636e-5 0 -1 1.31067e-5 0 -1 5.24269e-5 0 -1 -7.7636e-5 0 -1 -7.7636e-5 0 -1 -1.31067e-5 0 -1 7.01663e-6 0 -1 -7.01663e-6 0 -1 1.16416e-6 0 -1</float_array>
          <technique_common>
            <accessor source="#Cylinder_003-mesh-normals-array" count="75" stride="3">
              <param name="X" type="float"/>
              <param name="Y" type="float"/>
              <param name="Z" type="float"/>
            </accessor>
          </technique_common>
        </source>
        <source id="Cylinder_003-mesh-map-0">
          <float_array id="Cylinder_003-mesh-map-0-array" count="744">1 1 0.96875 0.5 1 0.5 0.96875 1 0.9375 0.5 0.96875 0.5 0.9375 1 0.90625 0.5 0.9375 0.5 0.90625 1 0.8750001 0.5 0.90625 0.5 0.8750001 1 0.84375 0.5 0.8750001 0.5 0.84375 1 0.8125 0.5 0.84375 0.5 0.8125 1 0.78125 0.5 0.8125 0.5 0.78125 1 0.75 0.5 0.78125 0.5 0.75 1 0.71875 0.5 0.75 0.5 0.71875 1 0.6875 0.5 0.71875 0.5 0.6875 1 0.65625 0.5 0.6875 0.5 0.65625 1 0.625 0.5 0.65625 0.5 0.625 1 0.59375 0.5 0.625 0.5 0.59375 1 0.5625 0.5 0.59375 0.5 0.5625 1 0.53125 0.5 0.5625 0.5 0.53125 1 0.5 0.5 0.53125 0.5 0.5 1 0.46875 0.5 0.5 0.5 0.46875 1 0.4375 0.5 0.46875 0.5 0.4375 1 0.40625 0.5 0.4375 0.5 0.40625 1 0.375 0.5 0.40625 0.5 0.375 1 0.34375 0.5 0.375 0.5 0.34375 1 0.3125 0.5 0.34375 0.5 0.3125 1 0.28125 0.5 0.3125 0.5 0.28125 1 0.25 0.5 0.28125 0.5 0.25 1 0.21875 0.5 0.25 0.5 0.21875 1 0.1875 0.5 0.21875 0.5 0.1875 1 0.15625 0.5 0.1875 0.5 0.15625 1 0.125 0.5 0.15625 0.5 0.125 1 0.09375 0.5 0.125 0.5 0.09375 1 0.0625 0.5 0.09375 0.5 0.1581559 0.02826887 0.4717311 0.1581559 0.341844 0.4717311 0.0625 1 0.03125 0.5 0.0625 0.5 0.03125 1 0 0.5 0.03125 0.5 0.7968217 0.01461154 0.5146116 0.2031783 0.7031784 0.4853885 1 1 0.96875 1 0.96875 0.5 0.96875 1 0.9375 1 0.9375 0.5 0.9375 1 0.90625 1 0.90625 0.5 0.90625 1 0.8750001 1 0.8750001 0.5 0.8750001 1 0.84375 1 0.84375 0.5 0.84375 1 0.8125 1 0.8125 0.5 0.8125 1 0.78125 1 0.78125 0.5 0.78125 1 0.75 1 0.75 0.5 0.75 1 0.71875 1 0.71875 0.5 0.71875 1 0.6875 1 0.6875 0.5 0.6875 1 0.65625 1 0.65625 0.5 0.65625 1 0.625 1 0.625 0.5 0.625 1 0.59375 1 0.59375 0.5 0.59375 1 0.5625 1 0.5625 0.5 0.5625 1 0.53125 1 0.53125 0.5 0.53125 1 0.5 1 0.5 0.5 0.5 1 0.46875 1 0.46875 0.5 0.46875 1 0.4375 1 0.4375 0.5 0.4375 1 0.40625 1 0.40625 0.5 0.40625 1 0.375 1 0.375 0.5 0.375 1 0.34375 1 0.34375 0.5 0.34375 1 0.3125 1 0.3125 0.5 0.3125 1 0.28125 1 0.28125 0.5 0.28125 1 0.25 1 0.25 0.5 0.25 1 0.21875 1 0.21875 0.5 0.21875 1 0.1875 1 0.1875 0.5 0.1875 1 0.15625 1 0.15625 0.5 0.15625 1 0.125 1 0.125 0.5 0.125 1 0.09375 1 0.09375 0.5 0.09375 1 0.0625 1 0.0625 0.5 0.341844 0.4717311 0.2968217 0.4853885 0.25 0.49 0.25 0.49 0.2031783 0.4853885 0.341844 0.4717311 0.2031783 0.4853885 0.1581559 0.4717311 0.341844 0.4717311 0.1581559 0.4717311 0.116663 0.4495527 0.08029437 0.4197056 0.08029437 0.4197056 0.05044728 0.3833369 0.02826887 0.341844 0.02826887 0.341844 0.01461154 0.2968217 0.00999999 0.25 0.00999999 0.25 0.01461154 0.2031783 0.02826887 0.341844 0.01461154 0.2031783 0.02826887 0.1581559 0.02826887 0.341844 0.02826887 0.1581559 0.05044728 0.116663 0.08029437 0.08029437 0.08029437 0.08029437 0.116663 0.05044728 0.1581559 0.02826887 0.1581559 0.02826887 0.2031783 0.01461154 0.341844 0.02826887 0.2031783 0.01461154 0.25 0.00999999 0.341844 0.02826887 0.25 0.00999999 0.2968217 0.01461154 0.341844 0.02826887 0.341844 0.02826887 0.3833369 0.05044728 0.4197056 0.08029437 0.4197056 0.08029437 0.4495527 0.116663 0.4717311 0.1581559 0.4717311 0.1581559 0.4853885 0.2031783 0.4717311 0.341844 0.4853885 0.2031783 0.49 0.25 0.4717311 0.341844 0.49 0.25 0.4853885 0.2968217 0.4717311 0.341844 0.4717311 0.341844 0.4495527 0.3833369 0.4197056 0.4197056 0.4197056 0.4197056 0.3833369 0.4495527 0.341844 0.4717311 0.1581559 0.4717311 0.08029437 0.4197056 0.341844 0.4717311 0.08029437 0.4197056 0.02826887 0.341844 0.341844 0.4717311 0.02826887 0.1581559 0.08029437 0.08029437 0.02826887 0.341844 0.08029437 0.08029437 0.1581559 0.02826887 0.02826887 0.341844 0.341844 0.02826887 0.4197056 0.08029437 0.1581559 0.02826887 0.4197056 0.08029437 0.4717311 0.1581559 0.1581559 0.02826887 0.4717311 0.341844 0.4197056 0.4197056 0.4717311 0.1581559 0.4197056 0.4197056 0.341844 0.4717311 0.4717311 0.1581559 0.341844 0.4717311 0.02826887 0.341844 0.1581559 0.02826887 0.0625 1 0.03125 1 0.03125 0.5 0.03125 1 0 1 0 0.5 0.7031784 0.4853885 0.75 0.49 0.7968217 0.4853885 0.7968217 0.4853885 0.841844 0.4717311 0.8833369 0.4495527 0.8833369 0.4495527 0.9197056 0.4197056 0.9853885 0.2968217 0.9197056 0.4197056 0.9495527 0.3833369 0.9853885 0.2968217 0.9495527 0.3833369 0.9717311 0.341844 0.9853885 0.2968217 0.9853885 0.2968217 0.99 0.25 0.9853885 0.2031783 0.9853885 0.2031783 0.9717311 0.1581559 0.9495527 0.116663 0.9495527 0.116663 0.9197056 0.08029437 0.7968217 0.01461154 0.9197056 0.08029437 0.8833369 0.05044728 0.7968217 0.01461154 0.8833369 0.05044728 0.841844 0.02826887 0.7968217 0.01461154 0.7968217 0.01461154 0.75 0.00999999 0.7031784 0.01461154 0.7031784 0.01461154 0.658156 0.02826887 0.6166632 0.05044728 0.6166632 0.05044728 0.5802944 0.08029437 0.5146116 0.2031783 0.5802944 0.08029437 0.5504473 0.116663 0.5146116 0.2031783 0.5504473 0.116663 0.5282689 0.1581559 0.5146116 0.2031783 0.5146116 0.2031783 0.51 0.25 0.5146116 0.2968217 0.5146116 0.2968217 0.5282689 0.341844 0.5504473 0.3833369 0.5504473 0.3833369 0.5802944 0.4197056 0.7031784 0.4853885 0.5802944 0.4197056 0.6166632 0.4495527 0.7031784 0.4853885 0.6166632 0.4495527 0.658156 0.4717311 0.7031784 0.4853885 0.7031784 0.4853885 0.7968217 0.4853885 0.9853885 0.2968217 0.7968217 0.4853885 0.8833369 0.4495527 0.9853885 0.2968217 0.9853885 0.2968217 0.9853885 0.2031783 0.7968217 0.01461154 0.9853885 0.2031783 0.9495527 0.116663 0.7968217 0.01461154 0.7968217 0.01461154 0.7031784 0.01461154 0.5146116 0.2031783 0.7031784 0.01461154 0.6166632 0.05044728 0.5146116 0.2031783 0.5146116 0.2031783 0.5146116 0.2968217 0.7031784 0.4853885 0.5146116 0.2968217 0.5504473 0.3833369 0.7031784 0.4853885 0.7031784 0.4853885 0.9853885 0.2968217 0.7968217 0.01461154</float_array>
          <technique_common>
            <accessor source="#Cylinder_003-mesh-map-0-array" count="372" stride="2">
              <param name="S" type="float"/>
              <param name="T" type="float"/>
            </accessor>
          </technique_common>
        </source>
        <vertices id="Cylinder_003-mesh-vertices">
          <input semantic="POSITION" source="#Cylinder_003-mesh-positions"/>
        </vertices>
        <triangles material="Material_005-material" count="124">
          <input semantic="VERTEX" source="#Cylinder_003-mesh-vertices" offset="0"/>
          <input semantic="NORMAL" source="#Cylinder_003-mesh-normals" offset="1"/>
          <input semantic="TEXCOORD" source="#Cylinder_003-mesh-map-0" offset="2" set="0"/>
          <p>1 0 0 2 0 1 0 0 2 3 1 3 4 1 4 2 1 5 5 2 6 6 2 7 4 2 8 7 3 9 8 3 10 6 3 11 9 4 12 10 4 13 8 4 14 11 5 15 12 5 16 10 5 17 13 6 18 14 6 19 12 6 20 15 7 21 16 7 22 14 7 23 17 8 24 18 8 25 16 8 26 19 9 27 20 9 28 18 9 29 21 10 30 22 10 31 20 10 32 23 11 33 24 11 34 22 11 35 25 12 36 26 12 37 24 12 38 27 13 39 28 13 40 26 13 41 29 14 42 30 14 43 28 14 44 31 15 45 32 15 46 30 15 47 33 16 48 34 16 49 32 16 50 35 17 51 36 17 52 34 17 53 37 18 54 38 18 55 36 18 56 39 19 57 40 19 58 38 19 59 41 20 60 42 20 61 40 20 62 43 21 63 44 21 64 42 21 65 45 22 66 46 22 67 44 22 68 47 23 69 48 23 70 46 23 71 49 24 72 50 24 73 48 24 74 51 25 75 52 25 76 50 25 77 53 26 78 54 26 79 52 26 80 55 27 81 56 27 82 54 27 83 57 28 84 58 28 85 56 28 86 59 29 87 60 29 88 58 29 89 37 30 90 21 30 91 5 30 92 61 31 93 62 31 94 60 31 95 63 32 96 0 32 97 62 32 98 30 33 99 46 33 100 62 33 101 1 0 102 3 0 103 2 0 104 3 34 105 5 34 106 4 34 107 5 2 108 7 2 109 6 2 110 7 35 111 9 35 112 8 35 113 9 36 114 11 36 115 10 36 116 11 37 117 13 37 118 12 37 119 13 38 120 15 38 121 14 38 122 15 7 123 17 7 124 16 7 125 17 8 126 19 8 127 18 8 128 19 39 129 21 39 130 20 39 131 21 40 132 23 40 133 22 40 134 23 41 135 25 41 136 24 41 137 25 42 138 27 42 139 26 42 140 27 13 141 29 13 142 28 13 143 29 43 144 31 43 145 30 43 146 31 15 147 33 15 148 32 15 149 33 16 150 35 16 151 34 16 152 35 44 153 37 44 154 36 44 155 37 18 156 39 18 157 38 18 158 39 45 159 41 45 160 40 45 161 41 46 162 43 46 163 42 46 164 43 47 165 45 47 166 44 47 167 45 48 168 47 48 169 46 48 170 47 23 171 49 23 172 48 23 173 49 24 174 51 24 175 50 24 176 51 49 177 53 49 178 52 49 179 53 50 180 55 50 181 54 50 182 55 51 183 57 51 184 56 51 185 57 52 186 59 52 187 58 52 188 59 29 189 61 29 190 60 29 191 5 53 192 3 53 193 1 53 194 1 30 195 63 30 196 5 30 197 63 30 198 61 30 199 5 30 200 61 54 201 59 54 202 57 54 203 57 55 204 55 55 205 53 55 206 53 56 207 51 56 208 49 56 209 49 30 210 47 30 211 53 30 212 47 30 213 45 30 214 53 30 215 45 55 216 43 55 217 41 55 218 41 54 219 39 54 220 37 54 221 37 30 222 35 30 223 29 30 224 35 30 225 33 30 226 29 30 227 33 30 228 31 30 229 29 30 230 29 57 231 27 57 232 25 57 233 25 58 234 23 58 235 21 58 236 21 30 237 19 30 238 13 30 239 19 30 240 17 30 241 13 30 242 17 59 243 15 59 244 13 59 245 13 58 246 11 58 247 9 58 248 9 57 249 7 57 250 5 57 251 61 30 252 57 30 253 5 30 254 57 30 255 53 30 256 5 30 257 45 60 258 41 60 259 53 60 260 41 30 261 37 30 262 53 30 263 29 30 264 25 30 265 37 30 266 25 30 267 21 30 268 37 30 269 13 61 270 9 61 271 21 61 272 9 30 273 5 30 274 21 30 275 5 30 276 53 30 277 37 30 278 61 62 279 63 62 280 62 62 281 63 32 282 1 32 283 0 32 284 62 63 285 0 63 286 2 63 287 2 63 288 4 63 289 6 63 290 6 63 291 8 63 292 14 63 293 8 64 294 10 64 295 14 64 296 10 65 297 12 65 298 14 65 299 14 63 300 16 63 301 18 63 302 18 66 303 20 66 304 22 66 305 22 63 306 24 63 307 30 63 308 24 67 309 26 67 310 30 67 311 26 63 312 28 63 313 30 63 314 30 63 315 32 63 316 34 63 317 34 63 318 36 63 319 38 63 320 38 63 321 40 63 322 46 63 323 40 68 324 42 68 325 46 68 326 42 69 327 44 69 328 46 69 329 46 63 330 48 63 331 50 63 332 50 70 333 52 70 334 54 70 335 54 63 336 56 63 337 62 63 338 56 71 339 58 71 340 62 71 341 58 63 342 60 63 343 62 63 344 62 63 345 2 63 346 14 63 347 2 72 348 6 72 349 14 72 350 14 63 351 18 63 352 30 63 353 18 63 354 22 63 355 30 63 356 30 63 357 34 63 358 46 63 359 34 73 360 38 73 361 46 73 362 46 63 363 50 63 364 62 63 365 50 63 366 54 63 367 62 63 368 62 74 369 14 74 370 30 74 371</p>
        </triangles>
      </mesh>
    </geometry>
    <geometry id="Cylinder_002-mesh" name="Cylinder.002">
      <mesh>
        <source id="Cylinder_002-mesh-positions">
          <float_array id="Cylinder_002-mesh-positions-array" count="192">0 0.00999999 -0.15 0 0.00999999 0.15 0.00195086 0.009807825 -0.15 0.00195086 0.009807825 0.15 0.003826797 0.009238779 -0.15 0.003826797 0.009238779 0.15 0.005555689 0.008314669 -0.15 0.005555689 0.008314669 0.15 0.007071018 0.007071018 -0.15 0.007071018 0.007071018 0.15 0.008314669 0.005555689 -0.15 0.008314669 0.005555689 0.15 0.009238779 0.003826797 -0.15 0.009238779 0.003826797 0.15 0.009807825 0.00195086 -0.15 0.009807825 0.00195086 0.15 0.00999999 0 -0.15 0.00999999 0 0.15 0.009807825 -0.00195086 -0.15 0.009807825 -0.00195086 0.15 0.009238779 -0.003826797 -0.15 0.009238779 -0.003826797 0.15 0.008314669 -0.005555689 -0.15 0.008314669 -0.005555689 0.15 0.007071018 -0.007071018 -0.15 0.007071018 -0.007071018 0.15 0.005555689 -0.008314669 -0.15 0.005555689 -0.008314669 0.15 0.003826797 -0.009238779 -0.15 0.003826797 -0.009238779 0.15 0.00195086 -0.009807825 -0.15 0.00195086 -0.009807825 0.15 0 -0.00999999 -0.15 0 -0.00999999 0.15 -0.00195086 -0.009807825 -0.15 -0.00195086 -0.009807825 0.15 -0.003826797 -0.009238779 -0.15 -0.003826797 -0.009238779 0.15 -0.005555689 -0.008314669 -0.15 -0.005555689 -0.008314669 0.15 -0.007071018 -0.007071018 -0.15 -0.007071018 -0.007071018 0.15 -0.008314669 -0.005555689 -0.15 -0.008314669 -0.005555689 0.15 -0.009238779 -0.003826797 -0.15 -0.009238779 -0.003826797 0.15 -0.009807825 -0.00195086 -0.15 -0.009807825 -0.00195086 0.15 -0.00999999 0 -0.15 -0.00999999 0 0.15 -0.009807825 0.00195086 -0.15 -0.009807825 0.00195086 0.15 -0.009238779 0.003826797 -0.15 -0.009238779 0.003826797 0.15 -0.008314669 0.005555689 -0.15 -0.008314669 0.005555689 0.15 -0.007071018 0.007071018 -0.15 -0.007071018 0.007071018 0.15 -0.005555689 0.008314669 -0.15 -0.005555689 0.008314669 0.15 -0.003826797 0.009238779 -0.15 -0.003826797 0.009238779 0.15 -0.00195086 0.009807825 -0.15 -0.00195086 0.009807825 0.15</float_array>
          <technique_common>
            <accessor source="#Cylinder_002-mesh-positions-array" count="64" stride="3">
              <param name="X" type="float"/>
              <param name="Y" type="float"/>
              <param name="Z" type="float"/>
            </accessor>
          </technique_common>
        </source>
        <source id="Cylinder_002-mesh-normals">
          <float_array id="Cylinder_002-mesh-normals-array" count="225">0.098028 0.9951838 0 0.2902787 0.9569422 0 0.4713958 0.8819218 0 0.6344094 0.7729974 0 0.7729969 0.6344099 0 0.8819215 0.4713963 0 0.956942 0.2902792 0 0.9951837 0.098028 0 0.9951837 -0.098028 0 0.9569423 -0.2902784 0 0.8819222 -0.4713951 0 0.7729973 -0.6344094 0 0.6344097 -0.772997 0 0.4713958 -0.8819218 0 0.2902787 -0.9569422 0 0.098028 -0.9951838 0 -0.098028 -0.9951838 0 -0.2902787 -0.9569422 0 -0.4713958 -0.8819218 0 -0.6344094 -0.7729974 0 -0.7729969 -0.6344099 0 -0.8819215 -0.4713963 0 -0.956942 -0.2902792 0 -0.9951837 -0.098028 0 -0.9951837 0.098028 0 -0.9569423 0.2902784 0 -0.8819222 0.4713951 0 -0.7729973 0.6344094 0 -0.6344097 0.772997 0 -0.4713958 0.8819218 0 0 0 1 -0.2902787 0.9569422 0 -0.098028 0.9951838 0 -1.16416e-6 0 -1 0.2902787 0.9569422 0 0.6344097 0.772997 0 0.7729973 0.6344094 0 0.8819222 0.4713951 0 0.9569423 0.2902784 0 0.956942 -0.2902792 0 0.8819215 -0.4713963 0 0.7729969 -0.6344099 0 0.6344094 -0.7729974 0 0.2902787 -0.9569422 0 -0.2902787 -0.9569422 0 -0.6344097 -0.772997 0 -0.7729973 -0.6344094 0 -0.8819222 -0.4713951 0 -0.9569423 -0.2902784 0 -0.956942 0.2902792 0 -0.8819215 0.4713963 0 -0.7729969 0.6344099 0 -0.6344094 0.7729974 0 4.85291e-6 0 1 -3.88148e-5 0 1 -7.763e-5 0 1 -7.76473e-5 0 1 3.88148e-5 0 1 7.763e-5 0 1 7.76473e-5 0 1 1.40334e-5 0 1 -1.40334e-5 0 1 -0.2902787 0.9569422 0 0 0 -1 -5.24269e-5 0 -1 7.7636e-5 0 -1 7.7636e-5 0 -1 1.31067e-5 0 -1 5.24269e-5 0 -1 -7.7636e-5 0 -1 -7.7636e-5 0 -1 -1.31067e-5 0 -1 7.01663e-6 0 -1 -7.01663e-6 0 -1 1.16416e-6 0 -1</float_array>
          <technique_common>
            <accessor source="#Cylinder_002-mesh-normals-array" count="75" stride="3">
              <param name="X" type="float"/>
              <param name="Y" type="float"/>
              <param name="Z" type="float"/>
            </accessor>
          </technique_common>
        </source>
        <source id="Cylinder_002-mesh-map-0">
          <float_array id="Cylinder_002-mesh-map-0-array" count="744">1 1 0.96875 0.5 1 0.5 0.96875 1 0.9375 0.5 0.96875 0.5 0.9375 1 0.90625 0.5 0.9375 0.5 0.90625 1 0.8750001 0.5 0.90625 0.5 0.8750001 1 0.84375 0.5 0.8750001 0.5 0.84375 1 0.8125 0.5 0.84375 0.5 0.8125 1 0.78125 0.5 0.8125 0.5 0.78125 1 0.75 0.5 0.78125 0.5 0.75 1 0.71875 0.5 0.75 0.5 0.71875 1 0.6875 0.5 0.71875 0.5 0.6875 1 0.65625 0.5 0.6875 0.5 0.65625 1 0.625 0.5 0.65625 0.5 0.625 1 0.59375 0.5 0.625 0.5 0.59375 1 0.5625 0.5 0.59375 0.5 0.5625 1 0.53125 0.5 0.5625 0.5 0.53125 1 0.5 0.5 0.53125 0.5 0.5 1 0.46875 0.5 0.5 0.5 0.46875 1 0.4375 0.5 0.46875 0.5 0.4375 1 0.40625 0.5 0.4375 0.5 0.40625 1 0.375 0.5 0.40625 0.5 0.375 1 0.34375 0.5 0.375 0.5 0.34375 1 0.3125 0.5 0.34375 0.5 0.3125 1 0.28125 0.5 0.3125 0.5 0.28125 1 0.25 0.5 0.28125 0.5 0.25 1 0.21875 0.5 0.25 0.5 0.21875 1 0.1875 0.5 0.21875 0.5 0.1875 1 0.15625 0.5 0.1875 0.5 0.15625 1 0.125 0.5 0.15625 0.5 0.125 1 0.09375 0.5 0.125 0.5 0.09375 1 0.0625 0.5 0.09375 0.5 0.1581559 0.02826887 0.4717311 0.1581559 0.341844 0.4717311 0.0625 1 0.03125 0.5 0.0625 0.5 0.03125 1 0 0.5 0.03125 0.5 0.7968217 0.01461154 0.5146116 0.2031783 0.7031784 0.4853885 1 1 0.96875 1 0.96875 0.5 0.96875 1 0.9375 1 0.9375 0.5 0.9375 1 0.90625 1 0.90625 0.5 0.90625 1 0.8750001 1 0.8750001 0.5 0.8750001 1 0.84375 1 0.84375 0.5 0.84375 1 0.8125 1 0.8125 0.5 0.8125 1 0.78125 1 0.78125 0.5 0.78125 1 0.75 1 0.75 0.5 0.75 1 0.71875 1 0.71875 0.5 0.71875 1 0.6875 1 0.6875 0.5 0.6875 1 0.65625 1 0.65625 0.5 0.65625 1 0.625 1 0.625 0.5 0.625 1 0.59375 1 0.59375 0.5 0.59375 1 0.5625 1 0.5625 0.5 0.5625 1 0.53125 1 0.53125 0.5 0.53125 1 0.5 1 0.5 0.5 0.5 1 0.46875 1 0.46875 0.5 0.46875 1 0.4375 1 0.4375 0.5 0.4375 1 0.40625 1 0.40625 0.5 0.40625 1 0.375 1 0.375 0.5 0.375 1 0.34375 1 0.34375 0.5 0.34375 1 0.3125 1 0.3125 0.5 0.3125 1 0.28125 1 0.28125 0.5 0.28125 1 0.25 1 0.25 0.5 0.25 1 0.21875 1 0.21875 0.5 0.21875 1 0.1875 1 0.1875 0.5 0.1875 1 0.15625 1 0.15625 0.5 0.15625 1 0.125 1 0.125 0.5 0.125 1 0.09375 1 0.09375 0.5 0.09375 1 0.0625 1 0.0625 0.5 0.341844 0.4717311 0.2968217 0.4853885 0.25 0.49 0.25 0.49 0.2031783 0.4853885 0.341844 0.4717311 0.2031783 0.4853885 0.1581559 0.4717311 0.341844 0.4717311 0.1581559 0.4717311 0.116663 0.4495527 0.08029437 0.4197056 0.08029437 0.4197056 0.05044728 0.3833369 0.02826887 0.341844 0.02826887 0.341844 0.01461154 0.2968217 0.00999999 0.25 0.00999999 0.25 0.01461154 0.2031783 0.02826887 0.341844 0.01461154 0.2031783 0.02826887 0.1581559 0.02826887 0.341844 0.02826887 0.1581559 0.05044728 0.116663 0.08029437 0.08029437 0.08029437 0.08029437 0.116663 0.05044728 0.1581559 0.02826887 0.1581559 0.02826887 0.2031783 0.01461154 0.341844 0.02826887 0.2031783 0.01461154 0.25 0.00999999 0.341844 0.02826887 0.25 0.00999999 0.2968217 0.01461154 0.341844 0.02826887 0.341844 0.02826887 0.3833369 0.05044728 0.4197056 0.08029437 0.4197056 0.08029437 0.4495527 0.116663 0.4717311 0.1581559 0.4717311 0.1581559 0.4853885 0.2031783 0.4717311 0.341844 0.4853885 0.2031783 0.49 0.25 0.4717311 0.341844 0.49 0.25 0.4853885 0.2968217 0.4717311 0.341844 0.4717311 0.341844 0.4495527 0.3833369 0.4197056 0.4197056 0.4197056 0.4197056 0.3833369 0.4495527 0.341844 0.4717311 0.1581559 0.4717311 0.08029437 0.4197056 0.341844 0.4717311 0.08029437 0.4197056 0.02826887 0.341844 0.341844 0.4717311 0.02826887 0.1581559 0.08029437 0.08029437 0.02826887 0.341844 0.08029437 0.08029437 0.1581559 0.02826887 0.02826887 0.341844 0.341844 0.02826887 0.4197056 0.08029437 0.1581559 0.02826887 0.4197056 0.08029437 0.4717311 0.1581559 0.1581559 0.02826887 0.4717311 0.341844 0.4197056 0.4197056 0.4717311 0.1581559 0.4197056 0.4197056 0.341844 0.4717311 0.4717311 0.1581559 0.341844 0.4717311 0.02826887 0.341844 0.1581559 0.02826887 0.0625 1 0.03125 1 0.03125 0.5 0.03125 1 0 1 0 0.5 0.7031784 0.4853885 0.75 0.49 0.7968217 0.4853885 0.7968217 0.4853885 0.841844 0.4717311 0.8833369 0.4495527 0.8833369 0.4495527 0.9197056 0.4197056 0.9853885 0.2968217 0.9197056 0.4197056 0.9495527 0.3833369 0.9853885 0.2968217 0.9495527 0.3833369 0.9717311 0.341844 0.9853885 0.2968217 0.9853885 0.2968217 0.99 0.25 0.9853885 0.2031783 0.9853885 0.2031783 0.9717311 0.1581559 0.9495527 0.116663 0.9495527 0.116663 0.9197056 0.08029437 0.7968217 0.01461154 0.9197056 0.08029437 0.8833369 0.05044728 0.7968217 0.01461154 0.8833369 0.05044728 0.841844 0.02826887 0.7968217 0.01461154 0.7968217 0.01461154 0.75 0.00999999 0.7031784 0.01461154 0.7031784 0.01461154 0.658156 0.02826887 0.6166632 0.05044728 0.6166632 0.05044728 0.5802944 0.08029437 0.5146116 0.2031783 0.5802944 0.08029437 0.5504473 0.116663 0.5146116 0.2031783 0.5504473 0.116663 0.5282689 0.1581559 0.5146116 0.2031783 0.5146116 0.2031783 0.51 0.25 0.5146116 0.2968217 0.5146116 0.2968217 0.5282689 0.341844 0.5504473 0.3833369 0.5504473 0.3833369 0.5802944 0.4197056 0.7031784 0.4853885 0.5802944 0.4197056 0.6166632 0.4495527 0.7031784 0.4853885 0.6166632 0.4495527 0.658156 0.4717311 0.7031784 0.4853885 0.7031784 0.4853885 0.7968217 0.4853885 0.9853885 0.2968217 0.7968217 0.4853885 0.8833369 0.4495527 0.9853885 0.2968217 0.9853885 0.2968217 0.9853885 0.2031783 0.7968217 0.01461154 0.9853885 0.2031783 0.9495527 0.116663 0.7968217 0.01461154 0.7968217 0.01461154 0.7031784 0.01461154 0.5146116 0.2031783 0.7031784 0.01461154 0.6166632 0.05044728 0.5146116 0.2031783 0.5146116 0.2031783 0.5146116 0.2968217 0.7031784 0.4853885 0.5146116 0.2968217 0.5504473 0.3833369 0.7031784 0.4853885 0.7031784 0.4853885 0.9853885 0.2968217 0.7968217 0.01461154</float_array>
          <technique_common>
            <accessor source="#Cylinder_002-mesh-map-0-array" count="372" stride="2">
              <param name="S" type="float"/>
              <param name="T" type="float"/>
            </accessor>
          </technique_common>
        </source>
        <vertices id="Cylinder_002-mesh-vertices">
          <input semantic="POSITION" source="#Cylinder_002-mesh-positions"/>
        </vertices>
        <triangles material="Material_002-material" count="124">
          <input semantic="VERTEX" source="#Cylinder_002-mesh-vertices" offset="0"/>
          <input semantic="NORMAL" source="#Cylinder_002-mesh-normals" offset="1"/>
          <input semantic="TEXCOORD" source="#Cylinder_002-mesh-map-0" offset="2" set="0"/>
          <p>1 0 0 2 0 1 0 0 2 3 1 3 4 1 4 2 1 5 5 2 6 6 2 7 4 2 8 7 3 9 8 3 10 6 3 11 9 4 12 10 4 13 8 4 14 11 5 15 12 5 16 10 5 17 13 6 18 14 6 19 12 6 20 15 7 21 16 7 22 14 7 23 17 8 24 18 8 25 16 8 26 19 9 27 20 9 28 18 9 29 21 10 30 22 10 31 20 10 32 23 11 33 24 11 34 22 11 35 25 12 36 26 12 37 24 12 38 27 13 39 28 13 40 26 13 41 29 14 42 30 14 43 28 14 44 31 15 45 32 15 46 30 15 47 33 16 48 34 16 49 32 16 50 35 17 51 36 17 52 34 17 53 37 18 54 38 18 55 36 18 56 39 19 57 40 19 58 38 19 59 41 20 60 42 20 61 40 20 62 43 21 63 44 21 64 42 21 65 45 22 66 46 22 67 44 22 68 47 23 69 48 23 70 46 23 71 49 24 72 50 24 73 48 24 74 51 25 75 52 25 76 50 25 77 53 26 78 54 26 79 52 26 80 55 27 81 56 27 82 54 27 83 57 28 84 58 28 85 56 28 86 59 29 87 60 29 88 58 29 89 37 30 90 21 30 91 5 30 92 61 31 93 62 31 94 60 31 95 63 32 96 0 32 97 62 32 98 30 33 99 46 33 100 62 33 101 1 0 102 3 0 103 2 0 104 3 34 105 5 34 106 4 34 107 5 2 108 7 2 109 6 2 110 7 35 111 9 35 112 8 35 113 9 36 114 11 36 115 10 36 116 11 37 117 13 37 118 12 37 119 13 38 120 15 38 121 14 38 122 15 7 123 17 7 124 16 7 125 17 8 126 19 8 127 18 8 128 19 39 129 21 39 130 20 39 131 21 40 132 23 40 133 22 40 134 23 41 135 25 41 136 24 41 137 25 42 138 27 42 139 26 42 140 27 13 141 29 13 142 28 13 143 29 43 144 31 43 145 30 43 146 31 15 147 33 15 148 32 15 149 33 16 150 35 16 151 34 16 152 35 44 153 37 44 154 36 44 155 37 18 156 39 18 157 38 18 158 39 45 159 41 45 160 40 45 161 41 46 162 43 46 163 42 46 164 43 47 165 45 47 166 44 47 167 45 48 168 47 48 169 46 48 170 47 23 171 49 23 172 48 23 173 49 24 174 51 24 175 50 24 176 51 49 177 53 49 178 52 49 179 53 50 180 55 50 181 54 50 182 55 51 183 57 51 184 56 51 185 57 52 186 59 52 187 58 52 188 59 29 189 61 29 190 60 29 191 5 53 192 3 53 193 1 53 194 1 30 195 63 30 196 5 30 197 63 30 198 61 30 199 5 30 200 61 54 201 59 54 202 57 54 203 57 55 204 55 55 205 53 55 206 53 56 207 51 56 208 49 56 209 49 30 210 47 30 211 53 30 212 47 30 213 45 30 214 53 30 215 45 55 216 43 55 217 41 55 218 41 54 219 39 54 220 37 54 221 37 30 222 35 30 223 29 30 224 35 30 225 33 30 226 29 30 227 33 30 228 31 30 229 29 30 230 29 57 231 27 57 232 25 57 233 25 58 234 23 58 235 21 58 236 21 30 237 19 30 238 13 30 239 19 30 240 17 30 241 13 30 242 17 59 243 15 59 244 13 59 245 13 58 246 11 58 247 9 58 248 9 57 249 7 57 250 5 57 251 61 30 252 57 30 253 5 30 254 57 30 255 53 30 256 5 30 257 45 60 258 41 60 259 53 60 260 41 30 261 37 30 262 53 30 263 29 30 264 25 30 265 37 30 266 25 30 267 21 30 268 37 30 269 13 61 270 9 61 271 21 61 272 9 30 273 5 30 274 21 30 275 5 30 276 53 30 277 37 30 278 61 62 279 63 62 280 62 62 281 63 32 282 1 32 283 0 32 284 62 63 285 0 63 286 2 63 287 2 63 288 4 63 289 6 63 290 6 63 291 8 63 292 14 63 293 8 64 294 10 64 295 14 64 296 10 65 297 12 65 298 14 65 299 14 63 300 16 63 301 18 63 302 18 66 303 20 66 304 22 66 305 22 63 306 24 63 307 30 63 308 24 67 309 26 67 310 30 67 311 26 63 312 28 63 313 30 63 314 30 63 315 32 63 316 34 63 317 34 63 318 36 63 319 38 63 320 38 63 321 40 63 322 46 63 323 40 68 324 42 68 325 46 68 326 42 69 327 44 69 328 46 69 329 46 63 330 48 63 331 50 63 332 50 70 333 52 70 334 54 70 335 54 63 336 56 63 337 62 63 338 56 71 339 58 71 340 62 71 341 58 63 342 60 63 343 62 63 344 62 63 345 2 63 346 14 63 347 2 72 348 6 72 349 14 72 350 14 63 351 18 63 352 30 63 353 18 63 354 22 63 355 30 63 356 30 63 357 34 63 358 46 63 359 34 73 360 38 73 361 46 73 362 46 63 363 50 63 364 62 63 365 50 63 366 54 63 367 62 63 368 62 74 369 14 74 370 30 74 371</p>
        </triangles>
      </mesh>
    </geometry>
    <geometry id="Cylinder_001-mesh" name="Cylinder.001">
      <mesh>
        <source id="Cylinder_001-mesh-positions">
          <float_array id="Cylinder_001-mesh-positions-array" count="192">0 0.00999999 -0.15 0 0.00999999 0.15 0.00195086 0.009807825 -0.15 0.00195086 0.009807825 0.15 0.003826797 0.009238779 -0.15 0.003826797 0.009238779 0.15 0.005555689 0.008314669 -0.15 0.005555689 0.008314669 0.15 0.007071018 0.007071018 -0.15 0.007071018 0.007071018 0.15 0.008314669 0.005555689 -0.15 0.008314669 0.005555689 0.15 0.009238779 0.003826797 -0.15 0.009238779 0.003826797 0.15 0.009807825 0.00195086 -0.15 0.009807825 0.00195086 0.15 0.00999999 0 -0.15 0.00999999 0 0.15 0.009807825 -0.00195086 -0.15 0.009807825 -0.00195086 0.15 0.009238779 -0.003826797 -0.15 0.009238779 -0.003826797 0.15 0.008314669 -0.005555689 -0.15 0.008314669 -0.005555689 0.15 0.007071018 -0.007071018 -0.15 0.007071018 -0.007071018 0.15 0.005555689 -0.008314669 -0.15 0.005555689 -0.008314669 0.15 0.003826797 -0.009238779 -0.15 0.003826797 -0.009238779 0.15 0.00195086 -0.009807825 -0.15 0.00195086 -0.009807825 0.15 0 -0.00999999 -0.15 0 -0.00999999 0.15 -0.00195086 -0.009807825 -0.15 -0.00195086 -0.009807825 0.15 -0.003826797 -0.009238779 -0.15 -0.003826797 -0.009238779 0.15 -0.005555689 -0.008314669 -0.15 -0.005555689 -0.008314669 0.15 -0.007071018 -0.007071018 -0.15 -0.007071018 -0.007071018 0.15 -0.008314669 -0.005555689 -0.15 -0.008314669 -0.005555689 0.15 -0.009238779 -0.003826797 -0.15 -0.009238779 -0.003826797 0.15 -0.009807825 -0.00195086 -0.15 -0.009807825 -0.00195086 0.15 -0.00999999 0 -0.15 -0.00999999 0 0.15 -0.009807825 0.00195086 -0.15 -0.009807825 0.00195086 0.15 -0.009238779 0.003826797 -0.15 -0.009238779 0.003826797 0.15 -0.008314669 0.005555689 -0.15 -0.008314669 0.005555689 0.15 -0.007071018 0.007071018 -0.15 -0.007071018 0.007071018 0.15 -0.005555689 0.008314669 -0.15 -0.005555689 0.008314669 0.15 -0.003826797 0.009238779 -0.15 -0.003826797 0.009238779 0.15 -0.00195086 0.009807825 -0.15 -0.00195086 0.009807825 0.15</float_array>
          <technique_common>
            <accessor source="#Cylinder_001-mesh-positions-array" count="64" stride="3">
              <param name="X" type="float"/>
              <param name="Y" type="float"/>
              <param name="Z" type="float"/>
            </accessor>
          </technique_common>
        </source>
        <source id="Cylinder_001-mesh-normals">
          <float_array id="Cylinder_001-mesh-normals-array" count="225">0.098028 0.9951838 0 0.2902787 0.9569422 0 0.4713958 0.8819218 0 0.6344094 0.7729974 0 0.7729969 0.6344099 0 0.8819215 0.4713963 0 0.956942 0.2902792 0 0.9951837 0.098028 0 0.9951837 -0.098028 0 0.9569423 -0.2902784 0 0.8819222 -0.4713951 0 0.7729973 -0.6344094 0 0.6344097 -0.772997 0 0.4713958 -0.8819218 0 0.2902787 -0.9569422 0 0.098028 -0.9951838 0 -0.098028 -0.9951838 0 -0.2902787 -0.9569422 0 -0.4713958 -0.8819218 0 -0.6344094 -0.7729974 0 -0.7729969 -0.6344099 0 -0.8819215 -0.4713963 0 -0.956942 -0.2902792 0 -0.9951837 -0.098028 0 -0.9951837 0.098028 0 -0.9569423 0.2902784 0 -0.8819222 0.4713951 0 -0.7729973 0.6344094 0 -0.6344097 0.772997 0 -0.4713958 0.8819218 0 0 0 1 -0.2902787 0.9569422 0 -0.098028 0.9951838 0 -1.16416e-6 0 -1 0.2902787 0.9569422 0 0.6344097 0.772997 0 0.7729973 0.6344094 0 0.8819222 0.4713951 0 0.9569423 0.2902784 0 0.956942 -0.2902792 0 0.8819215 -0.4713963 0 0.7729969 -0.6344099 0 0.6344094 -0.7729974 0 0.2902787 -0.9569422 0 -0.2902787 -0.9569422 0 -0.6344097 -0.772997 0 -0.7729973 -0.6344094 0 -0.8819222 -0.4713951 0 -0.9569423 -0.2902784 0 -0.956942 0.2902792 0 -0.8819215 0.4713963 0 -0.7729969 0.6344099 0 -0.6344094 0.7729974 0 4.85291e-6 0 1 -3.88148e-5 0 1 -7.763e-5 0 1 -7.76473e-5 0 1 3.88148e-5 0 1 7.763e-5 0 1 7.76473e-5 0 1 1.40334e-5 0 1 -1.40334e-5 0 1 -0.2902787 0.9569422 0 0 0 -1 -5.24269e-5 0 -1 7.7636e-5 0 -1 7.7636e-5 0 -1 1.31067e-5 0 -1 5.24269e-5 0 -1 -7.7636e-5 0 -1 -7.7636e-5 0 -1 -1.31067e-5 0 -1 7.01663e-6 0 -1 -7.01663e-6 0 -1 1.16416e-6 0 -1</float_array>
          <technique_common>
            <accessor source="#Cylinder_001-mesh-normals-array" count="75" stride="3">
              <param name="X" type="float"/>
              <param name="Y" type="float"/>
              <param name="Z" type="float"/>
            </accessor>
          </technique_common>
        </source>
        <source id="Cylinder_001-mesh-map-0">
          <float_array id="Cylinder_001-mesh-map-0-array" count="744">1 1 0.96875 0.5 1 0.5 0.96875 1 0.9375 0.5 0.96875 0.5 0.9375 1 0.90625 0.5 0.9375 0.5 0.90625 1 0.8750001 0.5 0.90625 0.5 0.8750001 1 0.84375 0.5 0.8750001 0.5 0.84375 1 0.8125 0.5 0.84375 0.5 0.8125 1 0.78125 0.5 0.8125 0.5 0.78125 1 0.75 0.5 0.78125 0.5 0.75 1 0.71875 0.5 0.75 0.5 0.71875 1 0.6875 0.5 0.71875 0.5 0.6875 1 0.65625 0.5 0.6875 0.5 0.65625 1 0.625 0.5 0.65625 0.5 0.625 1 0.59375 0.5 0.625 0.5 0.59375 1 0.5625 0.5 0.59375 0.5 0.5625 1 0.53125 0.5 0.5625 0.5 0.53125 1 0.5 0.5 0.53125 0.5 0.5 1 0.46875 0.5 0.5 0.5 0.46875 1 0.4375 0.5 0.46875 0.5 0.4375 1 0.40625 0.5 0.4375 0.5 0.40625 1 0.375 0.5 0.40625 0.5 0.375 1 0.34375 0.5 0.375 0.5 0.34375 1 0.3125 0.5 0.34375 0.5 0.3125 1 0.28125 0.5 0.3125 0.5 0.28125 1 0.25 0.5 0.28125 0.5 0.25 1 0.21875 0.5 0.25 0.5 0.21875 1 0.1875 0.5 0.21875 0.5 0.1875 1 0.15625 0.5 0.1875 0.5 0.15625 1 0.125 0.5 0.15625 0.5 0.125 1 0.09375 0.5 0.125 0.5 0.09375 1 0.0625 0.5 0.09375 0.5 0.1581559 0.02826887 0.4717311 0.1581559 0.341844 0.4717311 0.0625 1 0.03125 0.5 0.0625 0.5 0.03125 1 0 0.5 0.03125 0.5 0.7968217 0.01461154 0.5146116 0.2031783 0.7031784 0.4853885 1 1 0.96875 1 0.96875 0.5 0.96875 1 0.9375 1 0.9375 0.5 0.9375 1 0.90625 1 0.90625 0.5 0.90625 1 0.8750001 1 0.8750001 0.5 0.8750001 1 0.84375 1 0.84375 0.5 0.84375 1 0.8125 1 0.8125 0.5 0.8125 1 0.78125 1 0.78125 0.5 0.78125 1 0.75 1 0.75 0.5 0.75 1 0.71875 1 0.71875 0.5 0.71875 1 0.6875 1 0.6875 0.5 0.6875 1 0.65625 1 0.65625 0.5 0.65625 1 0.625 1 0.625 0.5 0.625 1 0.59375 1 0.59375 0.5 0.59375 1 0.5625 1 0.5625 0.5 0.5625 1 0.53125 1 0.53125 0.5 0.53125 1 0.5 1 0.5 0.5 0.5 1 0.46875 1 0.46875 0.5 0.46875 1 0.4375 1 0.4375 0.5 0.4375 1 0.40625 1 0.40625 0.5 0.40625 1 0.375 1 0.375 0.5 0.375 1 0.34375 1 0.34375 0.5 0.34375 1 0.3125 1 0.3125 0.5 0.3125 1 0.28125 1 0.28125 0.5 0.28125 1 0.25 1 0.25 0.5 0.25 1 0.21875 1 0.21875 0.5 0.21875 1 0.1875 1 0.1875 0.5 0.1875 1 0.15625 1 0.15625 0.5 0.15625 1 0.125 1 0.125 0.5 0.125 1 0.09375 1 0.09375 0.5 0.09375 1 0.0625 1 0.0625 0.5 0.341844 0.4717311 0.2968217 0.4853885 0.25 0.49 0.25 0.49 0.2031783 0.4853885 0.341844 0.4717311 0.2031783 0.4853885 0.1581559 0.4717311 0.341844 0.4717311 0.1581559 0.4717311 0.116663 0.4495527 0.08029437 0.4197056 0.08029437 0.4197056 0.05044728 0.3833369 0.02826887 0.341844 0.02826887 0.341844 0.01461154 0.2968217 0.00999999 0.25 0.00999999 0.25 0.01461154 0.2031783 0.02826887 0.341844 0.01461154 0.2031783 0.02826887 0.1581559 0.02826887 0.341844 0.02826887 0.1581559 0.05044728 0.116663 0.08029437 0.08029437 0.08029437 0.08029437 0.116663 0.05044728 0.1581559 0.02826887 0.1581559 0.02826887 0.2031783 0.01461154 0.341844 0.02826887 0.2031783 0.01461154 0.25 0.00999999 0.341844 0.02826887 0.25 0.00999999 0.2968217 0.01461154 0.341844 0.02826887 0.341844 0.02826887 0.3833369 0.05044728 0.4197056 0.08029437 0.4197056 0.08029437 0.4495527 0.116663 0.4717311 0.1581559 0.4717311 0.1581559 0.4853885 0.2031783 0.4717311 0.341844 0.4853885 0.2031783 0.49 0.25 0.4717311 0.341844 0.49 0.25 0.4853885 0.2968217 0.4717311 0.341844 0.4717311 0.341844 0.4495527 0.3833369 0.4197056 0.4197056 0.4197056 0.4197056 0.3833369 0.4495527 0.341844 0.4717311 0.1581559 0.4717311 0.08029437 0.4197056 0.341844 0.4717311 0.08029437 0.4197056 0.02826887 0.341844 0.341844 0.4717311 0.02826887 0.1581559 0.08029437 0.08029437 0.02826887 0.341844 0.08029437 0.08029437 0.1581559 0.02826887 0.02826887 0.341844 0.341844 0.02826887 0.4197056 0.08029437 0.1581559 0.02826887 0.4197056 0.08029437 0.4717311 0.1581559 0.1581559 0.02826887 0.4717311 0.341844 0.4197056 0.4197056 0.4717311 0.1581559 0.4197056 0.4197056 0.341844 0.4717311 0.4717311 0.1581559 0.341844 0.4717311 0.02826887 0.341844 0.1581559 0.02826887 0.0625 1 0.03125 1 0.03125 0.5 0.03125 1 0 1 0 0.5 0.7031784 0.4853885 0.75 0.49 0.7968217 0.4853885 0.7968217 0.4853885 0.841844 0.4717311 0.8833369 0.4495527 0.8833369 0.4495527 0.9197056 0.4197056 0.9853885 0.2968217 0.9197056 0.4197056 0.9495527 0.3833369 0.9853885 0.2968217 0.9495527 0.3833369 0.9717311 0.341844 0.9853885 0.2968217 0.9853885 0.2968217 0.99 0.25 0.9853885 0.2031783 0.9853885 0.2031783 0.9717311 0.1581559 0.9495527 0.116663 0.9495527 0.116663 0.9197056 0.08029437 0.7968217 0.01461154 0.9197056 0.08029437 0.8833369 0.05044728 0.7968217 0.01461154 0.8833369 0.05044728 0.841844 0.02826887 0.7968217 0.01461154 0.7968217 0.01461154 0.75 0.00999999 0.7031784 0.01461154 0.7031784 0.01461154 0.658156 0.02826887 0.6166632 0.05044728 0.6166632 0.05044728 0.5802944 0.08029437 0.5146116 0.2031783 0.5802944 0.08029437 0.5504473 0.116663 0.5146116 0.2031783 0.5504473 0.116663 0.5282689 0.1581559 0.5146116 0.2031783 0.5146116 0.2031783 0.51 0.25 0.5146116 0.2968217 0.5146116 0.2968217 0.5282689 0.341844 0.5504473 0.3833369 0.5504473 0.3833369 0.5802944 0.4197056 0.7031784 0.4853885 0.5802944 0.4197056 0.6166632 0.4495527 0.7031784 0.4853885 0.6166632 0.4495527 0.658156 0.4717311 0.7031784 0.4853885 0.7031784 0.4853885 0.7968217 0.4853885 0.9853885 0.2968217 0.7968217 0.4853885 0.8833369 0.4495527 0.9853885 0.2968217 0.9853885 0.2968217 0.9853885 0.2031783 0.7968217 0.01461154 0.9853885 0.2031783 0.9495527 0.116663 0.7968217 0.01461154 0.7968217 0.01461154 0.7031784 0.01461154 0.5146116 0.2031783 0.7031784 0.01461154 0.6166632 0.05044728 0.5146116 0.2031783 0.5146116 0.2031783 0.5146116 0.2968217 0.7031784 0.4853885 0.5146116 0.2968217 0.5504473 0.3833369 0.7031784 0.4853885 0.7031784 0.4853885 0.9853885 0.2968217 0.7968217 0.01461154</float_array>
          <technique_common>
            <accessor source="#Cylinder_001-mesh-map-0-array" count="372" stride="2">
              <param name="S" type="float"/>
              <param name="T" type="float"/>
            </accessor>
          </technique_common>
        </source>
        <vertices id="Cylinder_001-mesh-vertices">
          <input semantic="POSITION" source="#Cylinder_001-mesh-positions"/>
        </vertices>
        <triangles material="Material_001-material" count="124">
          <input semantic="VERTEX" source="#Cylinder_001-mesh-vertices" offset="0"/>
          <input semantic="NORMAL" source="#Cylinder_001-mesh-normals" offset="1"/>
          <input semantic="TEXCOORD" source="#Cylinder_001-mesh-map-0" offset="2" set="0"/>
          <p>1 0 0 2 0 1 0 0 2 3 1 3 4 1 4 2 1 5 5 2 6 6 2 7 4 2 8 7 3 9 8 3 10 6 3 11 9 4 12 10 4 13 8 4 14 11 5 15 12 5 16 10 5 17 13 6 18 14 6 19 12 6 20 15 7 21 16 7 22 14 7 23 17 8 24 18 8 25 16 8 26 19 9 27 20 9 28 18 9 29 21 10 30 22 10 31 20 10 32 23 11 33 24 11 34 22 11 35 25 12 36 26 12 37 24 12 38 27 13 39 28 13 40 26 13 41 29 14 42 30 14 43 28 14 44 31 15 45 32 15 46 30 15 47 33 16 48 34 16 49 32 16 50 35 17 51 36 17 52 34 17 53 37 18 54 38 18 55 36 18 56 39 19 57 40 19 58 38 19 59 41 20 60 42 20 61 40 20 62 43 21 63 44 21 64 42 21 65 45 22 66 46 22 67 44 22 68 47 23 69 48 23 70 46 23 71 49 24 72 50 24 73 48 24 74 51 25 75 52 25 76 50 25 77 53 26 78 54 26 79 52 26 80 55 27 81 56 27 82 54 27 83 57 28 84 58 28 85 56 28 86 59 29 87 60 29 88 58 29 89 37 30 90 21 30 91 5 30 92 61 31 93 62 31 94 60 31 95 63 32 96 0 32 97 62 32 98 30 33 99 46 33 100 62 33 101 1 0 102 3 0 103 2 0 104 3 34 105 5 34 106 4 34 107 5 2 108 7 2 109 6 2 110 7 35 111 9 35 112 8 35 113 9 36 114 11 36 115 10 36 116 11 37 117 13 37 118 12 37 119 13 38 120 15 38 121 14 38 122 15 7 123 17 7 124 16 7 125 17 8 126 19 8 127 18 8 128 19 39 129 21 39 130 20 39 131 21 40 132 23 40 133 22 40 134 23 41 135 25 41 136 24 41 137 25 42 138 27 42 139 26 42 140 27 13 141 29 13 142 28 13 143 29 43 144 31 43 145 30 43 146 31 15 147 33 15 148 32 15 149 33 16 150 35 16 151 34 16 152 35 44 153 37 44 154 36 44 155 37 18 156 39 18 157 38 18 158 39 45 159 41 45 160 40 45 161 41 46 162 43 46 163 42 46 164 43 47 165 45 47 166 44 47 167 45 48 168 47 48 169 46 48 170 47 23 171 49 23 172 48 23 173 49 24 174 51 24 175 50 24 176 51 49 177 53 49 178 52 49 179 53 50 180 55 50 181 54 50 182 55 51 183 57 51 184 56 51 185 57 52 186 59 52 187 58 52 188 59 29 189 61 29 190 60 29 191 5 53 192 3 53 193 1 53 194 1 30 195 63 30 196 5 30 197 63 30 198 61 30 199 5 30 200 61 54 201 59 54 202 57 54 203 57 55 204 55 55 205 53 55 206 53 56 207 51 56 208 49 56 209 49 30 210 47 30 211 53 30 212 47 30 213 45 30 214 53 30 215 45 55 216 43 55 217 41 55 218 41 54 219 39 54 220 37 54 221 37 30 222 35 30 223 29 30 224 35 30 225 33 30 226 29 30 227 33 30 228 31 30 229 29 30 230 29 57 231 27 57 232 25 57 233 25 58 234 23 58 235 21 58 236 21 30 237 19 30 238 13 30 239 19 30 240 17 30 241 13 30 242 17 59 243 15 59 244 13 59 245 13 58 246 11 58 247 9 58 248 9 57 249 7 57 250 5 57 251 61 30 252 57 30 253 5 30 254 57 30 255 53 30 256 5 30 257 45 60 258 41 60 259 53 60 260 41 30 261 37 30 262 53 30 263 29 30 264 25 30 265 37 30 266 25 30 267 21 30 268 37 30 269 13 61 270 9 61 271 21 61 272 9 30 273 5 30 274 21 30 275 5 30 276 53 30 277 37 30 278 61 62 279 63 62 280 62 62 281 63 32 282 1 32 283 0 32 284 62 63 285 0 63 286 2 63 287 2 63 288 4 63 289 6 63 290 6 63 291 8 63 292 14 63 293 8 64 294 10 64 295 14 64 296 10 65 297 12 65 298 14 65 299 14 63 300 16 63 301 18 63 302 18 66 303 20 66 304 22 66 305 22 63 306 24 63 307 30 63 308 24 67 309 26 67 310 30 67 311 26 63 312 28 63 313 30 63 314 30 63 315 32 63 316 34 63 317 34 63 318 36 63 319 38 63 320 38 63 321 40 63 322 46 63 323 40 68 324 42 68 325 46 68 326 42 69 327 44 69 328 46 69 329 46 63 330 48 63 331 50 63 332 50 70 333 52 70 334 54 70 335 54 63 336 56 63 337 62 63 338 56 71 339 58 71 340 62 71 341 58 63 342 60 63 343 62 63 344 62 63 345 2 63 346 14 63 347 2 72 348 6 72 349 14 72 350 14 63 351 18 63 352 30 63 353 18 63 354 22 63 355 30 63 356 30 63 357 34 63 358 46 63 359 34 73 360 38 73 361 46 73 362 46 63 363 50 63 364 62 63 365 50 63 366 54 63 367 62 63 368 62 74 369 14 74 370 30 74 371</p>
        </triangles>
      </mesh>
    </geometry>
    <geometry id="Cylinder_006-mesh" name="Cylinder.006">
      <mesh>
        <source id="Cylinder_006-mesh-positions">
          <float_array id="Cylinder_006-mesh-positions-array" count="192">0 0.00999999 -0.15 0 0.00999999 0.15 0.00195086 0.009807825 -0.15 0.00195086 0.009807825 0.15 0.003826797 0.009238779 -0.15 0.003826797 0.009238779 0.15 0.005555689 0.008314669 -0.15 0.005555689 0.008314669 0.15 0.007071018 0.007071018 -0.15 0.007071018 0.007071018 0.15 0.008314669 0.005555689 -0.15 0.008314669 0.005555689 0.15 0.009238779 0.003826797 -0.15 0.009238779 0.003826797 0.15 0.009807825 0.00195086 -0.15 0.009807825 0.00195086 0.15 0.00999999 0 -0.15 0.00999999 0 0.15 0.009807825 -0.00195086 -0.15 0.009807825 -0.00195086 0.15 0.009238779 -0.003826797 -0.15 0.009238779 -0.003826797 0.15 0.008314669 -0.005555689 -0.15 0.008314669 -0.005555689 0.15 0.007071018 -0.007071018 -0.15 0.007071018 -0.007071018 0.15 0.005555689 -0.008314669 -0.15 0.005555689 -0.008314669 0.15 0.003826797 -0.009238779 -0.15 0.003826797 -0.009238779 0.15 0.00195086 -0.009807825 -0.15 0.00195086 -0.009807825 0.15 0 -0.00999999 -0.15 0 -0.00999999 0.15 -0.00195086 -0.009807825 -0.15 -0.00195086 -0.009807825 0.15 -0.003826797 -0.009238779 -0.15 -0.003826797 -0.009238779 0.15 -0.005555689 -0.008314669 -0.15 -0.005555689 -0.008314669 0.15 -0.007071018 -0.007071018 -0.15 -0.007071018 -0.007071018 0.15 -0.008314669 -0.005555689 -0.15 -0.008314669 -0.005555689 0.15 -0.009238779 -0.003826797 -0.15 -0.009238779 -0.003826797 0.15 -0.009807825 -0.00195086 -0.15 -0.009807825 -0.00195086 0.15 -0.00999999 0 -0.15 -0.00999999 0 0.15 -0.009807825 0.00195086 -0.15 -0.009807825 0.00195086 0.15 -0.009238779 0.003826797 -0.15 -0.009238779 0.003826797 0.15 -0.008314669 0.005555689 -0.15 -0.008314669 0.005555689 0.15 -0.007071018 0.007071018 -0.15 -0.007071018 0.007071018 0.15 -0.005555689 0.008314669 -0.15 -0.005555689 0.008314669 0.15 -0.003826797 0.009238779 -0.15 -0.003826797 0.009238779 0.15 -0.00195086 0.009807825 -0.15 -0.00195086 0.009807825 0.15</float_array>
          <technique_common>
            <accessor source="#Cylinder_006-mesh-positions-array" count="64" stride="3">
              <param name="X" type="float"/>
              <param name="Y" type="float"/>
              <param name="Z" type="float"/>
            </accessor>
          </technique_common>
        </source>
        <source id="Cylinder_006-mesh-normals">
          <float_array id="Cylinder_006-mesh-normals-array" count="225">0.098028 0.9951838 0 0.2902787 0.9569422 0 0.4713958 0.8819218 0 0.6344094 0.7729974 0 0.7729969 0.6344099 0 0.8819215 0.4713963 0 0.956942 0.2902792 0 0.9951837 0.098028 0 0.9951837 -0.098028 0 0.9569423 -0.2902784 0 0.8819222 -0.4713951 0 0.7729973 -0.6344094 0 0.6344097 -0.772997 0 0.4713958 -0.8819218 0 0.2902787 -0.9569422 0 0.098028 -0.9951838 0 -0.098028 -0.9951838 0 -0.2902787 -0.9569422 0 -0.4713958 -0.8819218 0 -0.6344094 -0.7729974 0 -0.7729969 -0.6344099 0 -0.8819215 -0.4713963 0 -0.956942 -0.2902792 0 -0.9951837 -0.098028 0 -0.9951837 0.098028 0 -0.9569423 0.2902784 0 -0.8819222 0.4713951 0 -0.7729973 0.6344094 0 -0.6344097 0.772997 0 -0.4713958 0.8819218 0 0 0 1 -0.2902787 0.9569422 0 -0.098028 0.9951838 0 -1.16416e-6 0 -1 0.2902787 0.9569422 0 0.6344097 0.772997 0 0.7729973 0.6344094 0 0.8819222 0.4713951 0 0.9569423 0.2902784 0 0.956942 -0.2902792 0 0.8819215 -0.4713963 0 0.7729969 -0.6344099 0 0.6344094 -0.7729974 0 0.2902787 -0.9569422 0 -0.2902787 -0.9569422 0 -0.6344097 -0.772997 0 -0.7729973 -0.6344094 0 -0.8819222 -0.4713951 0 -0.9569423 -0.2902784 0 -0.956942 0.2902792 0 -0.8819215 0.4713963 0 -0.7729969 0.6344099 0 -0.6344094 0.7729974 0 4.85291e-6 0 1 -3.88148e-5 0 1 -7.763e-5 0 1 -7.76473e-5 0 1 3.88148e-5 0 1 7.763e-5 0 1 7.76473e-5 0 1 1.40334e-5 0 1 -1.40334e-5 0 1 -0.2902787 0.9569422 0 0 0 -1 -5.24269e-5 0 -1 7.7636e-5 0 -1 7.7636e-5 0 -1 1.31067e-5 0 -1 5.24269e-5 0 -1 -7.7636e-5 0 -1 -7.7636e-5 0 -1 -1.31067e-5 0 -1 7.01663e-6 0 -1 -7.01663e-6 0 -1 1.16416e-6 0 -1</float_array>
          <technique_common>
            <accessor source="#Cylinder_006-mesh-normals-array" count="75" stride="3">
              <param name="X" type="float"/>
              <param name="Y" type="float"/>
              <param name="Z" type="float"/>
            </accessor>
          </technique_common>
        </source>
        <source id="Cylinder_006-mesh-map-0">
          <float_array id="Cylinder_006-mesh-map-0-array" count="744">1 1 0.96875 0.5 1 0.5 0.96875 1 0.9375 0.5 0.96875 0.5 0.9375 1 0.90625 0.5 0.9375 0.5 0.90625 1 0.8750001 0.5 0.90625 0.5 0.8750001 1 0.84375 0.5 0.8750001 0.5 0.84375 1 0.8125 0.5 0.84375 0.5 0.8125 1 0.78125 0.5 0.8125 0.5 0.78125 1 0.75 0.5 0.78125 0.5 0.75 1 0.71875 0.5 0.75 0.5 0.71875 1 0.6875 0.5 0.71875 0.5 0.6875 1 0.65625 0.5 0.6875 0.5 0.65625 1 0.625 0.5 0.65625 0.5 0.625 1 0.59375 0.5 0.625 0.5 0.59375 1 0.5625 0.5 0.59375 0.5 0.5625 1 0.53125 0.5 0.5625 0.5 0.53125 1 0.5 0.5 0.53125 0.5 0.5 1 0.46875 0.5 0.5 0.5 0.46875 1 0.4375 0.5 0.46875 0.5 0.4375 1 0.40625 0.5 0.4375 0.5 0.40625 1 0.375 0.5 0.40625 0.5 0.375 1 0.34375 0.5 0.375 0.5 0.34375 1 0.3125 0.5 0.34375 0.5 0.3125 1 0.28125 0.5 0.3125 0.5 0.28125 1 0.25 0.5 0.28125 0.5 0.25 1 0.21875 0.5 0.25 0.5 0.21875 1 0.1875 0.5 0.21875 0.5 0.1875 1 0.15625 0.5 0.1875 0.5 0.15625 1 0.125 0.5 0.15625 0.5 0.125 1 0.09375 0.5 0.125 0.5 0.09375 1 0.0625 0.5 0.09375 0.5 0.1581559 0.02826887 0.4717311 0.1581559 0.341844 0.4717311 0.0625 1 0.03125 0.5 0.0625 0.5 0.03125 1 0 0.5 0.03125 0.5 0.7968217 0.01461154 0.5146116 0.2031783 0.7031784 0.4853885 1 1 0.96875 1 0.96875 0.5 0.96875 1 0.9375 1 0.9375 0.5 0.9375 1 0.90625 1 0.90625 0.5 0.90625 1 0.8750001 1 0.8750001 0.5 0.8750001 1 0.84375 1 0.84375 0.5 0.84375 1 0.8125 1 0.8125 0.5 0.8125 1 0.78125 1 0.78125 0.5 0.78125 1 0.75 1 0.75 0.5 0.75 1 0.71875 1 0.71875 0.5 0.71875 1 0.6875 1 0.6875 0.5 0.6875 1 0.65625 1 0.65625 0.5 0.65625 1 0.625 1 0.625 0.5 0.625 1 0.59375 1 0.59375 0.5 0.59375 1 0.5625 1 0.5625 0.5 0.5625 1 0.53125 1 0.53125 0.5 0.53125 1 0.5 1 0.5 0.5 0.5 1 0.46875 1 0.46875 0.5 0.46875 1 0.4375 1 0.4375 0.5 0.4375 1 0.40625 1 0.40625 0.5 0.40625 1 0.375 1 0.375 0.5 0.375 1 0.34375 1 0.34375 0.5 0.34375 1 0.3125 1 0.3125 0.5 0.3125 1 0.28125 1 0.28125 0.5 0.28125 1 0.25 1 0.25 0.5 0.25 1 0.21875 1 0.21875 0.5 0.21875 1 0.1875 1 0.1875 0.5 0.1875 1 0.15625 1 0.15625 0.5 0.15625 1 0.125 1 0.125 0.5 0.125 1 0.09375 1 0.09375 0.5 0.09375 1 0.0625 1 0.0625 0.5 0.341844 0.4717311 0.2968217 0.4853885 0.25 0.49 0.25 0.49 0.2031783 0.4853885 0.341844 0.4717311 0.2031783 0.4853885 0.1581559 0.4717311 0.341844 0.4717311 0.1581559 0.4717311 0.116663 0.4495527 0.08029437 0.4197056 0.08029437 0.4197056 0.05044728 0.3833369 0.02826887 0.341844 0.02826887 0.341844 0.01461154 0.2968217 0.00999999 0.25 0.00999999 0.25 0.01461154 0.2031783 0.02826887 0.341844 0.01461154 0.2031783 0.02826887 0.1581559 0.02826887 0.341844 0.02826887 0.1581559 0.05044728 0.116663 0.08029437 0.08029437 0.08029437 0.08029437 0.116663 0.05044728 0.1581559 0.02826887 0.1581559 0.02826887 0.2031783 0.01461154 0.341844 0.02826887 0.2031783 0.01461154 0.25 0.00999999 0.341844 0.02826887 0.25 0.00999999 0.2968217 0.01461154 0.341844 0.02826887 0.341844 0.02826887 0.3833369 0.05044728 0.4197056 0.08029437 0.4197056 0.08029437 0.4495527 0.116663 0.4717311 0.1581559 0.4717311 0.1581559 0.4853885 0.2031783 0.4717311 0.341844 0.4853885 0.2031783 0.49 0.25 0.4717311 0.341844 0.49 0.25 0.4853885 0.2968217 0.4717311 0.341844 0.4717311 0.341844 0.4495527 0.3833369 0.4197056 0.4197056 0.4197056 0.4197056 0.3833369 0.4495527 0.341844 0.4717311 0.1581559 0.4717311 0.08029437 0.4197056 0.341844 0.4717311 0.08029437 0.4197056 0.02826887 0.341844 0.341844 0.4717311 0.02826887 0.1581559 0.08029437 0.08029437 0.02826887 0.341844 0.08029437 0.08029437 0.1581559 0.02826887 0.02826887 0.341844 0.341844 0.02826887 0.4197056 0.08029437 0.1581559 0.02826887 0.4197056 0.08029437 0.4717311 0.1581559 0.1581559 0.02826887 0.4717311 0.341844 0.4197056 0.4197056 0.4717311 0.1581559 0.4197056 0.4197056 0.341844 0.4717311 0.4717311 0.1581559 0.341844 0.4717311 0.02826887 0.341844 0.1581559 0.02826887 0.0625 1 0.03125 1 0.03125 0.5 0.03125 1 0 1 0 0.5 0.7031784 0.4853885 0.75 0.49 0.7968217 0.4853885 0.7968217 0.4853885 0.841844 0.4717311 0.8833369 0.4495527 0.8833369 0.4495527 0.9197056 0.4197056 0.9853885 0.2968217 0.9197056 0.4197056 0.9495527 0.3833369 0.9853885 0.2968217 0.9495527 0.3833369 0.9717311 0.341844 0.9853885 0.2968217 0.9853885 0.2968217 0.99 0.25 0.9853885 0.2031783 0.9853885 0.2031783 0.9717311 0.1581559 0.9495527 0.116663 0.9495527 0.116663 0.9197056 0.08029437 0.7968217 0.01461154 0.9197056 0.08029437 0.8833369 0.05044728 0.7968217 0.01461154 0.8833369 0.05044728 0.841844 0.02826887 0.7968217 0.01461154 0.7968217 0.01461154 0.75 0.00999999 0.7031784 0.01461154 0.7031784 0.01461154 0.658156 0.02826887 0.6166632 0.05044728 0.6166632 0.05044728 0.5802944 0.08029437 0.5146116 0.2031783 0.5802944 0.08029437 0.5504473 0.116663 0.5146116 0.2031783 0.5504473 0.116663 0.5282689 0.1581559 0.5146116 0.2031783 0.5146116 0.2031783 0.51 0.25 0.5146116 0.2968217 0.5146116 0.2968217 0.5282689 0.341844 0.5504473 0.3833369 0.5504473 0.3833369 0.5802944 0.4197056 0.7031784 0.4853885 0.5802944 0.4197056 0.6166632 0.4495527 0.7031784 0.4853885 0.6166632 0.4495527 0.658156 0.4717311 0.7031784 0.4853885 0.7031784 0.4853885 0.7968217 0.4853885 0.9853885 0.2968217 0.7968217 0.4853885 0.8833369 0.4495527 0.9853885 0.2968217 0.9853885 0.2968217 0.9853885 0.2031783 0.7968217 0.01461154 0.9853885 0.2031783 0.9495527 0.116663 0.7968217 0.01461154 0.7968217 0.01461154 0.7031784 0.01461154 0.5146116 0.2031783 0.7031784 0.01461154 0.6166632 0.05044728 0.5146116 0.2031783 0.5146116 0.2031783 0.5146116 0.2968217 0.7031784 0.4853885 0.5146116 0.2968217 0.5504473 0.3833369 0.7031784 0.4853885 0.7031784 0.4853885 0.9853885 0.2968217 0.7968217 0.01461154</float_array>
          <technique_common>
            <accessor source="#Cylinder_006-mesh-map-0-array" count="372" stride="2">
              <param name="S" type="float"/>
              <param name="T" type="float"/>
            </accessor>
          </technique_common>
        </source>
        <vertices id="Cylinder_006-mesh-vertices">
          <input semantic="POSITION" source="#Cylinder_006-mesh-positions"/>
        </vertices>
        <triangles material="Material_003-material" count="124">
          <input semantic="VERTEX" source="#Cylinder_006-mesh-vertices" offset="0"/>
          <input semantic="NORMAL" source="#Cylinder_006-mesh-normals" offset="1"/>
          <input semantic="TEXCOORD" source="#Cylinder_006-mesh-map-0" offset="2" set="0"/>
          <p>1 0 0 2 0 1 0 0 2 3 1 3 4 1 4 2 1 5 5 2 6 6 2 7 4 2 8 7 3 9 8 3 10 6 3 11 9 4 12 10 4 13 8 4 14 11 5 15 12 5 16 10 5 17 13 6 18 14 6 19 12 6 20 15 7 21 16 7 22 14 7 23 17 8 24 18 8 25 16 8 26 19 9 27 20 9 28 18 9 29 21 10 30 22 10 31 20 10 32 23 11 33 24 11 34 22 11 35 25 12 36 26 12 37 24 12 38 27 13 39 28 13 40 26 13 41 29 14 42 30 14 43 28 14 44 31 15 45 32 15 46 30 15 47 33 16 48 34 16 49 32 16 50 35 17 51 36 17 52 34 17 53 37 18 54 38 18 55 36 18 56 39 19 57 40 19 58 38 19 59 41 20 60 42 20 61 40 20 62 43 21 63 44 21 64 42 21 65 45 22 66 46 22 67 44 22 68 47 23 69 48 23 70 46 23 71 49 24 72 50 24 73 48 24 74 51 25 75 52 25 76 50 25 77 53 26 78 54 26 79 52 26 80 55 27 81 56 27 82 54 27 83 57 28 84 58 28 85 56 28 86 59 29 87 60 29 88 58 29 89 37 30 90 21 30 91 5 30 92 61 31 93 62 31 94 60 31 95 63 32 96 0 32 97 62 32 98 30 33 99 46 33 100 62 33 101 1 0 102 3 0 103 2 0 104 3 34 105 5 34 106 4 34 107 5 2 108 7 2 109 6 2 110 7 35 111 9 35 112 8 35 113 9 36 114 11 36 115 10 36 116 11 37 117 13 37 118 12 37 119 13 38 120 15 38 121 14 38 122 15 7 123 17 7 124 16 7 125 17 8 126 19 8 127 18 8 128 19 39 129 21 39 130 20 39 131 21 40 132 23 40 133 22 40 134 23 41 135 25 41 136 24 41 137 25 42 138 27 42 139 26 42 140 27 13 141 29 13 142 28 13 143 29 43 144 31 43 145 30 43 146 31 15 147 33 15 148 32 15 149 33 16 150 35 16 151 34 16 152 35 44 153 37 44 154 36 44 155 37 18 156 39 18 157 38 18 158 39 45 159 41 45 160 40 45 161 41 46 162 43 46 163 42 46 164 43 47 165 45 47 166 44 47 167 45 48 168 47 48 169 46 48 170 47 23 171 49 23 172 48 23 173 49 24 174 51 24 175 50 24 176 51 49 177 53 49 178 52 49 179 53 50 180 55 50 181 54 50 182 55 51 183 57 51 184 56 51 185 57 52 186 59 52 187 58 52 188 59 29 189 61 29 190 60 29 191 5 53 192 3 53 193 1 53 194 1 30 195 63 30 196 5 30 197 63 30 198 61 30 199 5 30 200 61 54 201 59 54 202 57 54 203 57 55 204 55 55 205 53 55 206 53 56 207 51 56 208 49 56 209 49 30 210 47 30 211 53 30 212 47 30 213 45 30 214 53 30 215 45 55 216 43 55 217 41 55 218 41 54 219 39 54 220 37 54 221 37 30 222 35 30 223 29 30 224 35 30 225 33 30 226 29 30 227 33 30 228 31 30 229 29 30 230 29 57 231 27 57 232 25 57 233 25 58 234 23 58 235 21 58 236 21 30 237 19 30 238 13 30 239 19 30 240 17 30 241 13 30 242 17 59 243 15 59 244 13 59 245 13 58 246 11 58 247 9 58 248 9 57 249 7 57 250 5 57 251 61 30 252 57 30 253 5 30 254 57 30 255 53 30 256 5 30 257 45 60 258 41 60 259 53 60 260 41 30 261 37 30 262 53 30 263 29 30 264 25 30 265 37 30 266 25 30 267 21 30 268 37 30 269 13 61 270 9 61 271 21 61 272 9 30 273 5 30 274 21 30 275 5 30 276 53 30 277 37 30 278 61 62 279 63 62 280 62 62 281 63 32 282 1 32 283 0 32 284 62 63 285 0 63 286 2 63 287 2 63 288 4 63 289 6 63 290 6 63 291 8 63 292 14 63 293 8 64 294 10 64 295 14 64 296 10 65 297 12 65 298 14 65 299 14 63 300 16 63 301 18 63 302 18 66 303 20 66 304 22 66 305 22 63 306 24 63 307 30 63 308 24 67 309 26 67 310 30 67 311 26 63 312 28 63 313 30 63 314 30 63 315 32 63 316 34 63 317 34 63 318 36 63 319 38 63 320 38 63 321 40 63 322 46 63 323 40 68 324 42 68 325 46 68 326 42 69 327 44 69 328 46 69 329 46 63 330 48 63 331 50 63 332 50 70 333 52 70 334 54 70 335 54 63 336 56 63 337 62 63 338 56 71 339 58 71 340 62 71 341 58 63 342 60 63 343 62 63 344 62 63 345 2 63 346 14 63 347 2 72 348 6 72 349 14 72 350 14 63 351 18 63 352 30 63 353 18 63 354 22 63 355 30 63 356 30 63 357 34 63 358 46 63 359 34 73 360 38 73 361 46 73 362 46 63 363 50 63 364 62 63 365 50 63 366 54 63 367 62 63 368 62 74 369 14 74 370 30 74 371</p>
        </triangles>
      </mesh>
    </geometry>
    <geometry id="Cube_001-mesh" name="Cube.001">
      <mesh>
        <source id="Cube_001-mesh-positions">
          <float_array id="Cube_001-mesh-positions-array" count="24">-0.3498274 -0.2098964 -0.01499259 -0.3498274 -0.2098964 0.01499259 -0.3498274 0.2098964 -0.01499259 -0.3498274 0.2098964 0.01499259 0.3498274 -0.2098964 -0.01499259 0.3498274 -0.2098964 0.01499259 0.3498274 0.2098964 -0.01499259 0.3498274 0.2098964 0.01499259</float_array>
          <technique_common>
            <accessor source="#Cube_001-mesh-positions-array" count="8" stride="3">
              <param name="X" type="float"/>
              <param name="Y" type="float"/>
              <param name="Z" type="float"/>
            </accessor>
          </technique_common>
        </source>
        <source id="Cube_001-mesh-normals">
          <float_array id="Cube_001-mesh-normals-array" count="18">-1 0 0 0 1 0 1 0 0 0 -1 0 0 0 -1 0 0 1</float_array>
          <technique_common>
            <accessor source="#Cube_001-mesh-normals-array" count="6" stride="3">
              <param name="X" type="float"/>
              <param name="Y" type="float"/>
              <param name="Z" type="float"/>
            </accessor>
          </technique_common>
        </source>
        <source id="Cube_001-mesh-map-0">
          <float_array id="Cube_001-mesh-map-0-array" count="72">0.625 0 0.375 0.25 0.375 0 0.625 0.25 0.375 0.5 0.375 0.25 0.625 0.5 0.375 0.75 0.375 0.5 0.625 0.75 0.375 1 0.375 0.75 0.375 0.5 0.125 0.75 0.125 0.5 0.8750001 0.5 0.625 0.75 0.625 0.5 0.625 0 0.625 0.25 0.375 0.25 0.625 0.25 0.625 0.5 0.375 0.5 0.625 0.5 0.625 0.75 0.375 0.75 0.625 0.75 0.625 1 0.375 1 0.375 0.5 0.375 0.75 0.125 0.75 0.8750001 0.5 0.8750001 0.75 0.625 0.75</float_array>
          <technique_common>
            <accessor source="#Cube_001-mesh-map-0-array" count="36" stride="2">
              <param name="S" type="float"/>
              <param name="T" type="float"/>
            </accessor>
          </technique_common>
        </source>
        <vertices id="Cube_001-mesh-vertices">
          <input semantic="POSITION" source="#Cube_001-mesh-positions"/>
        </vertices>
        <triangles material="Material_004-material" count="12">
          <input semantic="VERTEX" source="#Cube_001-mesh-vertices" offset="0"/>
          <input semantic="NORMAL" source="#Cube_001-mesh-normals" offset="1"/>
          <input semantic="TEXCOORD" source="#Cube_001-mesh-map-0" offset="2" set="0"/>
          <p>1 0 0 2 0 1 0 0 2 3 1 3 6 1 4 2 1 5 7 2 6 4 2 7 6 2 8 5 3 9 0 3 10 4 3 11 6 4 12 0 4 13 2 4 14 3 5 15 5 5 16 7 5 17 1 0 18 3 0 19 2 0 20 3 1 21 7 1 22 6 1 23 7 2 24 5 2 25 4 2 26 5 3 27 1 3 28 0 3 29 6 4 30 4 4 31 0 4 32 3 5 33 1 5 34 5 5 35</p>
        </triangles>
      </mesh>
    </geometry>
  </library_geometries>
  <library_visual_scenes>
    <visual_scene id="Scene" name="Scene">
      <node id="Cylinder_004" name="Cylinder.004" type="NODE">
        <matrix sid="transform">2.4 0 0 0.28 0 2.4 0 -0.16 0 0 2.54201 -0.3886589 0 0 0 1</matrix>
        <instance_geometry url="#Cylinder_003-mesh" name="Cylinder.004">
          <bind_material>
            <technique_common>
              <instance_material symbol="Material_005-material" target="#Material_005-material">
                <bind_vertex_input semantic="Cylinder_006-mesh-map-0" input_semantic="TEXCOORD" input_set="0"/>
              </instance_material>
            </technique_common>
          </bind_material>
        </instance_geometry>
      </node>
      <node id="Cylinder_003" name="Cylinder.003" type="NODE">
        <matrix sid="transform">2.4 0 0 -0.28 0 2.4 0 -0.16 0 0 2.54201 -0.3886589 0 0 0 1</matrix>
        <instance_geometry url="#Cylinder_002-mesh" name="Cylinder.003">
          <bind_material>
            <technique_common>
              <instance_material symbol="Material_002-material" target="#Material_002-material">
                <bind_vertex_input semantic="Cylinder_006-mesh-map-0" input_semantic="TEXCOORD" input_set="0"/>
              </instance_material>
            </technique_common>
          </bind_material>
        </instance_geometry>
      </node>
      <node id="Cylinder_002" name="Cylinder.002" type="NODE">
        <matrix sid="transform">2.4 0 0 0.28 0 2.4 0 0.16 0 0 2.54201 -0.3886589 0 0 0 1</matrix>
        <instance_geometry url="#Cylinder_001-mesh" name="Cylinder.002">
          <bind_material>
            <technique_common>
              <instance_material symbol="Material_001-material" target="#Material_001-material">
                <bind_vertex_input semantic="Cylinder_006-mesh-map-0" input_semantic="TEXCOORD" input_set="0"/>
              </instance_material>
            </technique_common>
          </bind_material>
        </instance_geometry>
      </node>
      <node id="Cylinder_001" name="Cylinder.001" type="NODE">
        <matrix sid="transform">2.4 0 0 -0.28 0 2.4 0 0.16 0 0 2.54201 -0.3886589 0 0 0 1</matrix>
        <instance_geometry url="#Cylinder_006-mesh" name="Cylinder.001">
          <bind_material>
            <technique_common>
              <instance_material symbol="Material_003-material" target="#Material_003-material">
                <bind_vertex_input semantic="Cylinder_006-mesh-map-0" input_semantic="TEXCOORD" input_set="0"/>
              </instance_material>
            </technique_common>
          </bind_material>
        </instance_geometry>
      </node>
      <node id="Cube" name="Cube" type="NODE">
        <matrix sid="transform">1 0 0 0 0 1 0 0 0 0 1.059171 -0.01576418 0 0 0 1</matrix>
        <instance_geometry url="#Cube_001-mesh" name="Cube">
          <bind_material>
            <technique_common>
              <instance_material symbol="Material_004-material" target="#Material_004-material">
                <bind_vertex_input semantic="Cube_001-mesh-map-0" input_semantic="TEXCOORD" input_set="0"/>
              </instance_material>
            </technique_common>
          </bind_material>
        </instance_geometry>
      </node>
    </visual_scene>
  </library_visual_scenes>
  <scene>
    <instance_visual_scene url="#Scene"/>
  </scene>
</COLLADA>